<?xml version="1.0" standalone="no"?>
<!DOCTYPE svg PUBLIC "-//W3C//DTD SVG 20010904//EN"
 "http://www.w3.org/TR/2001/REC-SVG-20010904/DTD/svg10.dtd">
<svg version="1.0" xmlns="http://www.w3.org/2000/svg"
 width="512.000000pt" height="512.000000pt" viewBox="0 0 512.000000 512.000000"
 preserveAspectRatio="xMidYMid meet">
<metadata>
Created by potrace 1.11, written by Peter Selinger 2001-2013
</metadata>
<g transform="translate(0.000000,512.000000) scale(0.100000,-0.100000)"
fill="#000000" stroke="none">
<path d="M2350 4944 c-444 -54 -770 -169 -1100 -389 -680 -452 -1072 -1182
-1072 -1995 0 -630 232 -1207 667 -1659 364 -378 841 -625 1365 -708 162 -25
538 -25 700 0 906 143 1649 778 1923 1645 125 393 144 829 56 1240 -90 418
-308 824 -614 1141 -362 376 -840 625 -1360 707 -96 15 -485 27 -565 18z m666
-345 c53 -11 149 -39 213 -60 663 -227 1164 -765 1347 -1444 29 -107 51 -127
-208 185 -538 648 -922 1010 -1343 1265 -60 36 -111 68 -114 71 -7 7 5 5 105
-17z m-1641 -564 c236 -56 509 -159 792 -299 325 -161 568 -313 803 -503 545
-440 1152 -853 1501 -1022 l135 -66 -21 -85 c-12 -47 -34 -122 -49 -168 l-28
-82 -154 0 c-102 0 -181 5 -232 16 -277 57 -730 257 -1468 647 -625 330 -877
448 -1172 548 -332 113 -633 154 -852 115 -41 -8 -76 -13 -77 -12 -9 7 81 238
136 351 103 209 216 372 373 536 l63 67 75 -9 c41 -5 120 -20 175 -34z m-609
-2080 c365 -63 735 -194 1304 -463 832 -392 1269 -509 1779 -475 l124 8 -59
-53 c-76 -68 -220 -171 -309 -220 l-70 -39 -170 8 c-344 15 -615 62 -1105 189
-370 96 -415 104 -544 98 -113 -6 -248 -45 -344 -99 l-54 -30 -71 58 c-244
197 -464 484 -592 773 -30 69 -95 244 -95 257 0 9 128 1 206 -12z"/>
</g>
</svg>
